<?xml version="1.0" encoding="UTF-8" standalone="no"?>
<!DOCTYPE svg PUBLIC "-//W3C//DTD SVG 1.1//EN"
 "http://www.w3.org/Graphics/SVG/1.1/DTD/svg11.dtd">
<!-- Generated by graphviz version 2.43.0 (0)
 -->
<!-- Title: %3 Pages: 1 -->
<svg width="384pt" height="201pt"
 viewBox="0.00 0.00 384.29 201.00" xmlns="http://www.w3.org/2000/svg" xmlns:xlink="http://www.w3.org/1999/xlink">
<g id="graph0" class="graph" transform="scale(1 1) rotate(0) translate(4 197)">
<title>%3</title>
<polygon fill="white" stroke="transparent" points="-4,4 -4,-197 380.29,-197 380.29,4 -4,4"/>
<g id="clust1" class="cluster">
<title>cluster_VLAN10</title>
<polygon fill="none" stroke="black" points="292.49,-8 292.49,-185 368.29,-185 368.29,-8 292.49,-8"/>
<text text-anchor="middle" x="330.39" y="-169.8" font-family="Times,serif" font-size="14.00">VLAN10</text>
</g>
<!-- router1 -->
<g id="node1" class="node">
<title>router1</title>
<polygon fill="lightblue" stroke="black" points="65,-103 0,-103 0,-67 65,-67 65,-103"/>
<text text-anchor="middle" x="32.5" y="-81.3" font-family="Times,serif" font-size="14.00">Router</text>
</g>
<!-- switch1 -->
<g id="node2" class="node">
<title>switch1</title>
<ellipse fill="lightgreen" stroke="black" cx="182.25" cy="-85" rx="42.49" ry="18"/>
<text text-anchor="middle" x="182.25" y="-81.3" font-family="Times,serif" font-size="14.00">Switch</text>
</g>
<!-- router1&#45;&gt;switch1 -->
<g id="edge1" class="edge">
<title>router1&#45;&gt;switch1</title>
<path fill="none" stroke="black" d="M65.2,-85C83.92,-85 108.09,-85 129.51,-85"/>
<polygon fill="black" stroke="black" points="129.78,-88.5 139.78,-85 129.78,-81.5 129.78,-88.5"/>
<text text-anchor="middle" x="102.5" y="-88.8" font-family="Times,serif" font-size="14.00">Gi0/1</text>
</g>
<!-- pc1 -->
<g id="node3" class="node">
<title>pc1</title>
<ellipse fill="lightgray" stroke="black" cx="330.39" cy="-124" rx="29.8" ry="29.8"/>
<text text-anchor="middle" x="330.39" y="-120.3" font-family="Times,serif" font-size="14.00">PC1</text>
</g>
<!-- switch1&#45;&gt;pc1 -->
<g id="edge2" class="edge">
<title>switch1&#45;&gt;pc1</title>
<path fill="none" stroke="black" d="M218.62,-94.44C240.6,-100.31 268.84,-107.84 291.31,-113.84"/>
<polygon fill="black" stroke="black" points="290.62,-117.27 301.18,-116.47 292.42,-110.51 290.62,-117.27"/>
<text text-anchor="middle" x="262.49" y="-114.8" font-family="Times,serif" font-size="14.00">Fa0/1</text>
</g>
<!-- pc2 -->
<g id="node4" class="node">
<title>pc2</title>
<ellipse fill="lightgray" stroke="black" cx="330.39" cy="-46" rx="29.8" ry="29.8"/>
<text text-anchor="middle" x="330.39" y="-42.3" font-family="Times,serif" font-size="14.00">PC2</text>
</g>
<!-- switch1&#45;&gt;pc2 -->
<g id="edge3" class="edge">
<title>switch1&#45;&gt;pc2</title>
<path fill="none" stroke="black" d="M218.62,-75.56C240.6,-69.69 268.84,-62.16 291.31,-56.16"/>
<polygon fill="black" stroke="black" points="292.42,-59.49 301.18,-53.53 290.62,-52.73 292.42,-59.49"/>
<text text-anchor="middle" x="262.49" y="-71.8" font-family="Times,serif" font-size="14.00">Fa0/2</text>
</g>
</g>
</svg>
